<?xml version="1.0" encoding="utf-8"?>
<!-- Generator: Adobe Illustrator 16.0.0, SVG Export Plug-In . SVG Version: 6.00 Build 0)  -->
<!DOCTYPE svg PUBLIC "-//W3C//DTD SVG 1.1//EN" "http://www.w3.org/Graphics/SVG/1.1/DTD/svg11.dtd">
<svg version="1.1" id="Layer_1" xmlns="http://www.w3.org/2000/svg" xmlns:xlink="http://www.w3.org/1999/xlink" x="0px" y="0px"
	 width="128px" height="624px" viewBox="0 0 128 624" enable-background="new 0 0 128 624" xml:space="preserve">
<path fill="none" d="z"/>
<g id="logo">
	<path fill="#FFFFFF" d="M6.95,8l0.99-4h2.34c0.53,0,0.95,0.14,1.27,0.42c0.31,0.28,0.48,0.66,0.48,1.14c0,0.66-0.25,1.22-0.73,1.71
		C10.81,7.77,10.17,8,9.39,8H6.95z M4.7,19l1.46-7h3.03c1.4,0,2.61-0.2,3.61-0.64c1-0.42,1.81-0.97,2.43-1.64
		c0.63-0.66,1.1-1.41,1.38-2.24c0.28-0.81,0.42-1.62,0.42-2.42c0-0.7-0.14-1.36-0.39-1.97C16.38,2.48,16,1.95,15.55,1.48
		c-0.47-0.45-1.03-0.81-1.69-1.07C13.2,0.14,12.47,0,11.66,0H4.27L0,19H4.7z"/>
	<path fill="#FFFFFF" d="M22.55,8l0.98-4h2.33c0.47,0,0.88,0.14,1.22,0.42s0.52,0.67,0.52,1.19c0,0.66-0.24,1.22-0.71,1.69
		C26.42,7.77,25.8,8,24.99,8H22.55z M29.78,19l-1.57-7.09c0.56-0.16,1.11-0.46,1.64-0.86c0.53-0.41,1-0.91,1.4-1.49
		c0.41-0.58,0.72-1.23,0.97-1.95c0.25-0.72,0.38-1.49,0.38-2.28c0-0.78-0.16-1.5-0.46-2.16c-0.31-0.65-0.7-1.2-1.2-1.67
		s-1.09-0.83-1.78-1.09C28.47,0.14,27.74,0,26.97,0h-7.14l-4.26,19h4.7l1.45-7h1.91l1.11,7H29.78z"/>
	<path fill="#FFFFFF" d="M43.07,19l0.89-4h-6.24L41.1,0h-4.7l-4.27,19H43.07z"/>
</g>
<g id="prev">
	<g>
		<g id="prevnext">
			<path opacity="0.8" fill="#FFFFFF" enable-background="new    " d="M4,72c0-11.046,8.954-20,20-20s20,8.954,20,20
				s-8.954,20-20,20S4,83.046,4,72z M1,72c0,12.703,10.297,23,23,23s23-10.297,23-23S36.703,49,24,49S1,59.297,1,72z M16,72l11,11
				l3-3l-8-8l8-8l-3-3L16,72z"/>
			<path opacity="0.2" enable-background="new    " d="M16,72l11-11l3,3l-8,8l8,8l-3,3L16,72z M4,72c0,11.046,8.954,20,20,20
				s20-8.954,20-20s-8.954-20-20-20S4,60.954,4,72z"/>
		</g>
	</g>
</g>
<g id="next">
	<g transform="rotate(180,104,72)">
		<g id="prevnext_1_">
			<path opacity="0.8" fill="#FFFFFF" enable-background="new    " d="M124,72c0,11.046-8.954,20-20,20s-20-8.954-20-20
				s8.954-20,20-20S124,60.954,124,72z M127,72c0-12.703-10.297-23-23-23S81,59.297,81,72s10.297,23,23,23S127,84.703,127,72z
				 M112,72l-11-11l-3,3l8,8l-8,8l3,3L112,72z"/>
			<path opacity="0.2" enable-background="new    " d="M112,72l-11,11l-3-3l8-8l-8-8l3-3L112,72z M124,72c0-11.046-8.954-20-20-20
				s-20,8.954-20,20s8.954,20,20,20S124,83.046,124,72z"/>
		</g>
	</g>
</g>
<g id="navigation">
	<g>
		<path id="arrow" fill="#EEEEEE" d="M126,124l-11-11l-3,3l8,8l-8,8l3,3L126,124z"/>
	</g>
</g>
<g id="menu">
	<g>
		<path id="lines" fill="#999999" d="M0,175v2h128v-2H0z M0,170v2h128v-2H0z M0,165v2h128v-2H0z M0,160v2h128v-2H0z"/>
	</g>
</g>
<g id="menu-active">
	<g>
		<path id="lines_1_" fill="#FFFFFF" d="M0,223v2h128v-2H0z M0,218v2h128v-2H0z M0,213v2h128v-2H0z M0,208v2h128v-2H0z"/>
	</g>
</g>
<g id="search">
	<g>
		<path id="lens" fill="#999999" d="M16,270.585l-5.113-5.112C11.585,264.492,12,263.295,12,262c0-3.313-2.687-6-6-6s-6,2.687-6,6
			s2.687,6,6,6c1.295,0,2.492-0.415,3.473-1.113L14.585,272L16,270.585z M2,262c0-2.209,1.791-4,4-4s4,1.791,4,4s-1.791,4-4,4
			S2,264.209,2,262z"/>
	</g>
</g>
<g id="search-active">
	<g>
		<path id="lens_1_" fill="#FFFFFF" d="M16,318.585l-5.113-5.112C11.585,312.492,12,311.295,12,310c0-3.313-2.687-6-6-6
			s-6,2.687-6,6s2.687,6,6,6c1.295,0,2.492-0.415,3.473-1.113L14.585,320L16,318.585z M2,310c0-2.209,1.791-4,4-4s4,1.791,4,4
			s-1.791,4-4,4S2,312.209,2,310z"/>
	</g>
</g>
<g id="feed">
	<g>
		<path id="rss" fill="#999999" d="M1,355.68c6.24,0,11.31,5.08,11.31,11.32H15c0-7.721-6.28-14-14-14V355.68z M1,360.439
			c1.75,0,3.39,0.681,4.63,1.92c1.24,1.23,1.92,2.881,1.92,4.641h2.69c0-5.1-4.14-9.24-9.24-9.24V360.439z M4.73,365.13
			c0-1.03-0.83-1.86-1.86-1.86c-1.03,0-1.87,0.83-1.87,1.86c0,1.021,0.84,1.851,1.87,1.851C3.9,366.98,4.73,366.15,4.73,365.13z"/>
	</g>
</g>
<g id="twitter">
	<g>
		<rect id="icon" y="400" fill="#00AAEE" width="24" height="24"/>
	</g>
	<path fill="#FFFFFF" d="M20.667,406.626c-0.638,0.283-1.323,0.474-2.042,0.56c0.734-0.439,1.298-1.137,1.564-1.968
		c-0.688,0.408-1.448,0.704-2.258,0.863c-0.649-0.691-1.573-1.123-2.596-1.123c-1.964,0-3.556,1.593-3.556,3.557
		c0,0.279,0.031,0.551,0.092,0.811c-2.956-0.148-5.576-1.564-7.33-3.716c-0.306,0.525-0.481,1.136-0.481,1.788
		c0,1.233,0.628,2.322,1.582,2.96c-0.583-0.019-1.131-0.178-1.611-0.444c0,0.015,0,0.029,0,0.045c0,1.723,1.226,3.16,2.853,3.487
		c-0.298,0.081-0.613,0.125-0.937,0.125c-0.229,0-0.452-0.022-0.669-0.064c0.453,1.413,1.766,2.441,3.322,2.471
		c-1.217,0.954-2.75,1.522-4.417,1.522c-0.287,0-0.57-0.017-0.848-0.05c1.574,1.009,3.443,1.599,5.451,1.599
		c6.541,0,10.118-5.42,10.118-10.121c0-0.153-0.003-0.307-0.01-0.46C19.587,407.966,20.19,407.339,20.667,406.626L20.667,406.626z"
		/>
</g>
<g id="pinboard">
	<g>
		<rect id="icon_1_" y="448" fill="#3377FF" width="24" height="24"/>
	</g>
	<path fill="#FFFFFF" d="M8,454.17c0,0,5.03,4.38,5.05,4.37c1.19-0.65,2.89-0.82,2.89-0.82l-3.14,3.17l6.2,6.971L18.86,468
		l-6.94-6.13c-0.95,0.819-2.11,1.979-3.2,3.069c0-0.819,0.67-2.76,0.67-2.76L5.17,457H2.69L8,451.68V454.17z"/>
</g>
<g id="dribbble">
	<g>
		<rect id="icon_2_" y="496" fill="#EA4C88" width="24" height="24"/>
	</g>
	<path fill="#FFFFFF" d="M12,500c-3.95,0-8,2.66-8,8s4.05,8,8,8s8-2.66,8-8S15.95,500,12,500z M12,501.39
		c1.5,0,2.97,0.44,4.15,1.311c-1.09,1.021-2.17,1.78-3.29,2.329c-0.5-0.869-1.09-1.689-1.79-2.449c-0.32-0.35-0.64-0.66-0.94-0.95
		C10.73,501.471,11.37,501.39,12,501.39z M17.16,503.65c0.85,1,1.4,2.35,1.46,4.039c-1.66-0.25-3.16-0.26-4.55-0.029
		c-0.17-0.471-0.36-0.939-0.57-1.391C14.75,505.65,15.95,504.79,17.16,503.65z M18.56,509.08c-0.3,2.22-1.5,3.77-3.09,4.66
		c-0.21-1.601-0.51-3.2-0.96-4.74C15.74,508.819,17.07,508.85,18.56,509.08z M14.16,514.29c-0.69,0.21-1.42,0.319-2.16,0.319
		c-1.54,0-3.06-0.459-4.25-1.389c1.68-2.041,3.41-3.32,5.41-3.921C13.56,510.65,13.9,512.279,14.16,514.29z M6.76,512.26
		c-0.86-1.06-1.39-2.48-1.39-4.26c0-0.181,0.01-0.35,0.02-0.52c2.55,0.25,4.77,0.08,6.85-0.67c0.17,0.359,0.33,0.739,0.49,1.17
		C10.5,508.65,8.58,510.061,6.76,512.26z M5.6,506.1c0.47-1.859,1.63-3.17,3.1-3.93c1.07,1.08,2.09,2.061,2.89,3.391
		C9.78,506.18,7.84,506.311,5.6,506.1z"/>
</g>
<g id="flickr">
	<g>
		<rect id="icon_3_" y="544" fill="#EEEEEE" width="24" height="24"/>
	</g>
	<g>
		<path id="dot" fill="#0066DD" d="M5,556c0-1.66,1.34-3,3-3s3,1.34,3,3s-1.34,3-3,3S5,557.66,5,556z"/>
	</g>
	<g>
		<path id="dot_1_" fill="#FF0088" d="M13,556c0-1.66,1.34-3,3-3s3,1.34,3,3s-1.34,3-3,3S13,557.66,13,556z"/>
	</g>
</g>
<g id="feeds">
	<g>
		<rect id="icon_4_" y="592" fill="#FF9933" width="24" height="24"/>
	</g>
	<g>
		<path id="rss_1_" fill="#FFFFFF" d="M5,599.68c6.24,0,11.31,5.08,11.31,11.32H19c0-7.721-6.28-14-14-14V599.68z M5,604.439
			c1.75,0,3.39,0.681,4.63,1.92c1.24,1.23,1.92,2.881,1.92,4.641h2.69c0-5.1-4.14-9.24-9.24-9.24V604.439z M8.73,609.13
			c0-1.03-0.83-1.86-1.86-1.86c-1.03,0-1.87,0.83-1.87,1.86c0,1.021,0.84,1.851,1.87,1.851C7.9,610.98,8.73,610.15,8.73,609.13z"/>
	</g>
</g>
<path fill="none" d="z"/>
</svg>
